<?xml version="1.0" encoding="UTF-8"?>
<!DOCTYPE svg PUBLIC "-//W3C//DTD SVG 1.1//EN" "http://www.w3.org/Graphics/SVG/1.1/DTD/svg11.dtd">
<!-- Creator: CorelDRAW -->
<svg xmlns="http://www.w3.org/2000/svg" xml:space="preserve" width="25.4112mm" height="25.4112mm" style="shape-rendering:geometricPrecision; text-rendering:geometricPrecision; image-rendering:optimizeQuality; fill-rule:evenodd; clip-rule:evenodd" viewBox="0 0 10.6576 10.6576" xmlns:xlink="http://www.w3.org/1999/xlink">
 <defs>
  <style type="text/css">
   <![CDATA[
    .str0 {stroke:#4D4948;stroke-width:0.147924}
    .str2 {stroke:#582E3A;stroke-width:0.29589}
    .str3 {stroke:#582E3A;stroke-width:0.29589;stroke-linecap:round}
    .str1 {stroke:#E77817;stroke-width:0.591821;stroke-linecap:round}
    .fil2 {fill:none}
    .fil1 {fill:#4D4948}
    .fil5 {fill:#582E3A}
    .fil3 {fill:#DEDEDD}
    .fil4 {fill:#582E3A;fill-rule:nonzero}
    .fil0 {fill:black;fill-rule:nonzero}
   ]]>
  </style>
 </defs>
<symbol id="Im1-1-0" viewBox="-4.01676 -138.622 8.66548 4.20885">
 <path class="fil0" d="M1.28115 -136.647l0 0.0283937c-0.0862295,-0.0572487 -0.15346,-0.141381 -0.201775,-0.252104 -0.0481057,-0.110723 -0.0721375,-0.232056 -0.0721375,-0.363791 0,-0.136894 0.0254159,-0.261582 0.0759122,-0.374109 0.0506221,-0.112568 0.116678,-0.193052 0.198001,-0.241535l0 0.0277226c-0.0406822,0.0299874 -0.0740248,0.0708374 -0.10028,0.122927 -0.0260869,0.0518384 -0.0455892,0.117936 -0.058465,0.197749 -0.0128338,0.0800643 -0.0192926,0.163526 -0.0192926,0.250133 0,0.0983084 0.0059136,0.186928 0.0177827,0.266322 0.0118691,0.0793932 0.0301552,0.14503 0.0545226,0.19712 0.0245771,0.0522997 0.059807,0.099231 0.105732,0.141171zm3.09369 -1.17542l0 -0.0277226c0.0863553,0.0568293 0.153628,0.14071 0.201733,0.251433 0.0481057,0.110723 0.0721375,0.232056 0.0721375,0.363791 0,0.136894 -0.0252481,0.261834 -0.0758702,0.37457 -0.050664,0.112778 -0.11672,0.193261 -0.198001,0.241745l0 -0.0283937c0.0409758,-0.0299874 0.0745281,-0.0710471 0.100741,-0.122927 0.0260869,-0.0518384 0.0455892,-0.117727 0.0582972,-0.197539 0.0127079,-0.0796029 0.0191668,-0.163274 0.0191668,-0.250342 0,-0.097847 -0.00595554,-0.186509 -0.0176569,-0.266112 -0.0118272,-0.0793932 -0.0299455,-0.14524 -0.0546903,-0.19733 -0.0245771,-0.0522997 -0.0599748,-0.099231 -0.105858,-0.141171z"/>
 <path class="fil0" d="M-3.94299 -135.704l0 -1.66252 1.3293 0 0 1.66252 -1.3293 0zm0.0416888 -0.0416888l1.24597 0 0 -1.57914 -1.24597 0 0 1.57914z"/>
 <polygon class="fil0" points="-3.11718,-138.214 -2.58701,-138.214 -2.58701,-138.164 -3.11718,-138.164 "/>
 <path class="fil0" d="M-3.36572 -134.809l0.530169 0 0 0.0491122 -0.530169 0 0 -0.0491122zm0 0.188438l0.530169 0 0 0.049993 -0.530169 0 0 -0.049993z"/>
 <polygon class="fil0" points="-1.02209,-137.202 -0.491919,-137.202 -0.491919,-137.152 -1.02209,-137.152 "/>
 <path class="fil0" d="M-2.49973 -138.541l0.166587 -0.0813644 0.0167342 0 0 0.578442c0,0.0382497 0.0015518,0.0621976 0.00465539,0.0717181 0.00327135,0.00931077 0.00998182,0.0165245 0.0199636,0.0217251 0.0101915,0.00499091 0.0306585,0.00792674 0.0616944,0.00859779l0 0.0186215 -0.257598 0 0 -0.0186215c0.032378,-0.000671047 0.0532643,-0.00343911 0.0627429,-0.00843003 0.00926883,-0.00482315 0.0158115,-0.0114078 0.0195862,-0.0196701 0.00364882,-0.00826226 0.00553614,-0.0329232 0.00553614,-0.073941l0 -0.369831c0,-0.0498252 -0.00171956,-0.0816999 -0.00499091,-0.0958339 -0.00243254,-0.0108626 -0.00675241,-0.0187893 -0.0129596,-0.0238222 -0.00616524,-0.00499091 -0.0135468,-0.00759122 -0.0223542,-0.00759122 -0.0124144,0 -0.0298196,0.00520061 -0.0520481,0.0157277l-0.00754928 -0.0157277z"/>
 <path class="fil0" d="M-2.74328 -134.764c0,-0.0780931 0.0117014,-0.145366 0.0353138,-0.201733 0.0236125,-0.0563679 0.0547742,-0.0984342 0.0939046,-0.126031 0.0303229,-0.0218929 0.0615266,-0.0329232 0.0939046,-0.0329232 0.0523836,0 0.0995666,0.0269258 0.141297,0.0803579 0.0522158,0.0663498 0.0782189,0.156186 0.0782189,0.269803 0,0.0794771 -0.0113659,0.146875 -0.0343073,0.202404 -0.0228575,0.0556969 -0.0520061,0.0960436 -0.0875297,0.12104 -0.0354816,0.0251643 -0.0697889,0.0375786 -0.102838,0.0375786 -0.0651335,0 -0.119614,-0.0384594 -0.163022,-0.115714 -0.0366979,-0.0649657 -0.054942,-0.143227 -0.054942,-0.234782zm0.0988955 0.0125821c0,0.0942821 0.0115336,0.171369 0.0348106,0.23084 0.0191248,0.0501607 0.047896,0.075325 0.0858101,0.075325 0.018286,0 0.0370334,-0.00826226 0.0564938,-0.0244513 0.0196701,-0.0163987 0.034475,-0.0437858 0.0444569,-0.0820774 0.015518,-0.0579197 0.0232769,-0.139662 0.0232769,-0.244974 0,-0.0780931 -0.0080945,-0.143268 -0.0243254,-0.195526 -0.0120369,-0.0387949 -0.0277226,-0.066182 -0.0468475,-0.0824129 -0.0137984,-0.0110303 -0.0304907,-0.0165245 -0.049951,-0.0165245 -0.0229414,0 -0.0432825,0.0101496 -0.0611491,0.0306585 -0.0241577,0.0279323 -0.0406822,0.0719278 -0.0494897,0.131903 -0.00880749,0.0600167 -0.0130854,0.118943 -0.0130854,0.17724z"/>
 <polygon class="fil0" points="2.35617,-137.629 2.10826,-136.897 2.06791,-136.897 2.3157,-137.629 "/>
 <path class="fil0" d="M-3.69164 -138.608l0.211422 0.537047 0.114581 -0.40116c0.00947854,-0.0329652 0.0141339,-0.058465 0.0141339,-0.076751 0,-0.0124144 -0.00431986,-0.0222284 -0.0131274,-0.0293164 -0.00876555,-0.00704599 -0.0249546,-0.0104851 -0.0489025,-0.0104851 -0.00398434,0 -0.00826226,-0.000167762 -0.0125821,-0.000545226l0.0054942 -0.0187893 0.220061 0 -0.00603942 0.0187893c-0.0229414,-0.000335523 -0.0398015,0.00192926 -0.0509996,0.00708793 -0.0158535,0.00704599 -0.0275968,0.016189 -0.0353558,0.0272193 -0.0106529,0.0158954 -0.0216832,0.0434503 -0.0327135,0.0827904l-0.161093 0.56477 -0.0181183 0 -0.227778 -0.577897 -0.121627 0.42687c-0.00897525,0.0322522 -0.0136306,0.0570809 -0.0136306,0.0741507 0,0.0129177 0.0041521,0.0225639 0.0124144,0.0291067 0.00826226,0.00658465 0.0278904,0.0110303 0.0587585,0.0134629l-0.00499091 0.0186215 -0.215029 0 0.00704599 -0.0186215c0.0268419,-0.000671047 0.0449601,-0.00310359 0.0541031,-0.00704599 0.0137984,-0.00620718 0.023948,-0.0139662 0.0307004,-0.0238222 0.00977212,-0.014805 0.0206347,-0.0434503 0.0328813,-0.085852l0.135761 -0.476359c-0.0130854,-0.0201733 -0.0272193,-0.0341395 -0.0421921,-0.0416888 -0.0150147,-0.00742346 -0.0382916,-0.0117433 -0.0699566,-0.0127918l0.00566196 -0.0187893 0.171117 0z"/>
 <path class="fil0" d="M-3.74209 -134.882l-0.0670627 0.229792c0.0629106,-0.0939466 0.111142,-0.155851 0.144569,-0.185502 0.0334265,-0.0294841 0.0656368,-0.0442891 0.0966307,-0.0442891 0.016902,0 0.0307004,0.0054942 0.0417307,0.0165245 0.0108626,0.0111981 0.0163987,0.0257095 0.0163987,0.0434503 0,0.0201733 -0.00482315,0.0472249 -0.0146791,0.0808611l-0.0614847 0.212554c-0.00725569,0.024661 -0.0106948,0.0396756 -0.0106948,0.0450021 0,0.00465539 0.00138403,0.00863973 0.0039424,0.0119111 0.00276807,0.00327135 0.0057039,0.00482315 0.00863973,0.00482315 0.0041521,0 0.00897525,-0.00222284 0.0146372,-0.00654271 0.0179086,-0.0141339 0.0373689,-0.0356913 0.0585908,-0.0646721l0.0156857 0.00947854c-0.0313714,0.0448343 -0.0610233,0.0769187 -0.0889137,0.0960436 -0.0195023,0.0131274 -0.0370753,0.0196701 -0.0524255,0.0196701 -0.0125402,0 -0.0223542,-0.00381658 -0.0297777,-0.0114078 -0.00742346,-0.00754928 -0.0111981,-0.0177408 -0.0111981,-0.0304907 0,-0.0162309 0.0057039,-0.0439536 0.0172375,-0.0832937l0.0585908 -0.203076c0.00738151,-0.0251643 0.0110303,-0.0450021 0.0110303,-0.059136 0,-0.00671047 -0.00226478,-0.0122466 -0.00654271,-0.0163568 -0.00431986,-0.0041521 -0.009856,-0.00641688 -0.0162309,-0.00641688 -0.00931077,0 -0.0206766,0.0041521 -0.033762,0.0122466 -0.0249965,0.0151824 -0.0508318,0.0401789 -0.0776737,0.0749895 -0.0269258,0.0348525 -0.0553614,0.0793093 -0.0853068,0.133622 -0.0158535,0.0286453 -0.0289808,0.059849 -0.0395079,0.0939885l-0.0251223 0.0832517 -0.0758283 0 0.0918495 -0.316189c0.0108626,-0.0380819 0.016189,-0.0610233 0.016189,-0.0686145 0,-0.00742346 -0.00293583,-0.0139662 -0.00880749,-0.0195023 -0.00582972,-0.0054942 -0.0132532,-0.00843003 -0.0218929,-0.00843003 -0.00406822,0 -0.0111562,0.000712987 -0.0213057,0.00205508l-0.0191668 0.00310359 -0.00293583 -0.0182441 0.174598 -0.0312037z"/>
 <path class="fil0" d="M2.89536 -137.596l0.211422 0.537047 0.114623 -0.40116c0.00947854,-0.0329652 0.0141339,-0.058465 0.0141339,-0.076751 0,-0.0124144 -0.00431986,-0.0222284 -0.0131274,-0.0293164 -0.00876555,-0.00704599 -0.0249965,-0.0104851 -0.0489025,-0.0104851 -0.00398434,0 -0.00826226,-0.000167762 -0.0125821,-0.000545226l0.0054942 -0.0187893 0.220061 0 -0.00603942 0.0187893c-0.0229414,-0.000335523 -0.0398434,0.00192926 -0.0510415,0.00708793 -0.0158115,0.00704599 -0.0275549,0.016189 -0.0353138,0.0272193 -0.0106529,0.0158954 -0.0217251,0.0434503 -0.0327555,0.0827904l-0.161093 0.56477 -0.0180763 0 -0.227778 -0.577897 -0.121669 0.42687c-0.00897525,0.0322522 -0.0136306,0.0570809 -0.0136306,0.0741507 0,0.0129177 0.0041521,0.0225639 0.0124144,0.0291067 0.00826226,0.00658465 0.0279323,0.0110303 0.0588005,0.0134629l-0.00499091 0.0186215 -0.21507 0 0.00704599 -0.0186215c0.0268838,-0.000671047 0.0450021,-0.00310359 0.0541451,-0.00704599 0.0137565,-0.00620718 0.023906,-0.0139662 0.0306585,-0.0238222 0.00981406,-0.014805 0.0206766,-0.0434503 0.0329232,-0.085852l0.135761 -0.476359c-0.0131274,-0.0201733 -0.0272613,-0.0341395 -0.0421921,-0.0416888 -0.0150147,-0.00742346 -0.0382916,-0.0117433 -0.0699986,-0.0127918l0.00566196 -0.0187893 0.171117 0zm-1.31261 0.227946l-0.0670627 0.229792c0.0629106,-0.0939466 0.111142,-0.155851 0.144569,-0.185502 0.0334685,-0.0294841 0.0656368,-0.0442891 0.0966727,-0.0442891 0.016902,0 0.0306585,0.0054942 0.0416888,0.0165245 0.0108626,0.0111981 0.0163987,0.0257095 0.0163987,0.0434503 0,0.0201733 -0.00482315,0.0472249 -0.0146791,0.0808611l-0.0614847 0.212554c-0.00725569,0.024661 -0.0106948,0.0396756 -0.0106948,0.0450021 0,0.00465539 0.00138403,0.00863973 0.0039424,0.0119111 0.00276807,0.00327135 0.0057039,0.00482315 0.00863973,0.00482315 0.0041521,0 0.00897525,-0.00222284 0.0146372,-0.00654271 0.0179505,-0.0141339 0.0373689,-0.0356913 0.0585908,-0.0646721l0.0156857 0.00947854c-0.0313714,0.0448343 -0.0609814,0.0769187 -0.0889137,0.0960436 -0.0195023,0.0131274 -0.0370753,0.0196701 -0.0523836,0.0196701 -0.0125821,0 -0.0223962,-0.00381658 -0.0298196,-0.0114078 -0.00742346,-0.00754928 -0.0111981,-0.0177408 -0.0111981,-0.0304907 0,-0.0162309 0.0057039,-0.0439536 0.0172375,-0.0832937l0.0585908 -0.203076c0.00738151,-0.0251643 0.0110303,-0.0450021 0.0110303,-0.059136 0,-0.00671047 -0.00226478,-0.0122466 -0.00654271,-0.0163568 -0.00431986,-0.0041521 -0.009856,-0.00641688 -0.0162309,-0.00641688 -0.00931077,0 -0.0206347,0.0041521 -0.033762,0.0122466 -0.0249965,0.0151824 -0.0508318,0.0401789 -0.0776737,0.0749895 -0.0269258,0.0348525 -0.0553194,0.0793093 -0.0853068,0.133622 -0.0158535,0.0286453 -0.0289808,0.059849 -0.0395079,0.0939885l-0.0251223 0.0832517 -0.0757863 0 0.0918495 -0.316189c0.0108206,-0.0380819 0.0161471,-0.0610233 0.0161471,-0.0686145 0,-0.00742346 -0.00293583,-0.0139662 -0.00880749,-0.0195023 -0.00578778,-0.0054942 -0.0132112,-0.00843003 -0.021851,-0.00843003 -0.00411016,0 -0.0111981,0.000712987 -0.0213477,0.00205508l-0.0191668 0.00310359 -0.00293583 -0.0182441 0.174598 -0.0312037zm-1.27956 -0.200517c0.0141339,0 0.0260031,0.00482315 0.0358591,0.0146372 0.0096463,0.00968824 0.0146372,0.0215574 0.0146372,0.0358591 0,0.0137984 -0.00499091,0.0255417 -0.0150147,0.0355235 -0.00981406,0.0100238 -0.0217251,0.0148469 -0.0354816,0.0148469 -0.0137984,0 -0.0256675,-0.00482315 -0.0356494,-0.0148469 -0.009856,-0.00998182 -0.0148469,-0.0217251 -0.0148469,-0.0355235 0,-0.0143017 0.00482315,-0.0261708 0.0146372,-0.0358591 0.00968824,-0.00981406 0.0216832,-0.0146372 0.0358591,-0.0146372zm0.00654271 0.200517l-0.099944 0.353935c-0.00671047,0.023948 -0.0101496,0.0382497 -0.0101496,0.0429051 0,0.00553614 0.0015518,0.009856 0.00482315,0.0132951 0.00322941,0.00327135 0.00704599,0.00499091 0.0113239,0.00499091 0.00503285,0 0.0110303,-0.00276807 0.0181183,-0.0080945 0.0192926,-0.0151824 0.0386271,-0.0367398 0.0580455,-0.0646721l0.0177827 0.0115756c-0.0229414,0.0349783 -0.0497833,0.0644624 -0.0808192,0.0884524 -0.0228995,0.0179086 -0.0447924,0.0267161 -0.0656368,0.0267161 -0.0137984,0 -0.0249965,-0.0041521 -0.033762,-0.0122466 -0.00880749,-0.00826226 -0.0130854,-0.0186215 -0.0130854,-0.0312037 0,-0.0124144 0.00411016,-0.033091 0.0125821,-0.0620718l0.0656368 -0.226352c0.0106948,-0.0369076 0.0161471,-0.0601845 0.0161471,-0.069663 0,-0.00742346 -0.00255837,-0.0134629 -0.0078848,-0.0181183 -0.00515867,-0.00482315 -0.0124144,-0.00704599 -0.0213896,-0.00704599 -0.00738151,0 -0.0227317,0.00171956 -0.0460086,0.0054942l0 -0.0196281 0.174221 -0.0282678zm0.345296 -0.261205l-0.143352 0.496533 0.0575423 -0.0489864c0.0628687,-0.0532643 0.103719,-0.0925625 0.122676,-0.118272 0.00603942,-0.00843003 0.00893331,-0.014805 0.00893331,-0.0191248 0,-0.00310359 -0.000838808,-0.00587166 -0.00289389,-0.00859779 -0.00209702,-0.00276807 -0.00603942,-0.00486509 -0.0119111,-0.00658465 -0.00587166,-0.00171956 -0.016189,-0.00255837 -0.030994,-0.00255837l-0.0177408 0 0.0054942 -0.0191668 0.220732 0 -0.00515867 0.0191668c-0.0252062,0.00138403 -0.0468894,0.00532643 -0.0653012,0.0118691 -0.018286,0.00654271 -0.0360268,0.0162309 -0.0532643,0.0291486 -0.0339298,0.0251643 -0.0563679,0.0427373 -0.0672305,0.0524255l-0.0434083 0.0384174c0.00742346,0.0243254 0.0165665,0.0581294 0.027429,0.101538 0.0180763,0.0720956 0.030281,0.114833 0.0366979,0.128296 0.00654271,0.0134209 0.0130854,0.0201733 0.0197959,0.0201733 0.0057039,0 0.0124144,-0.00276807 0.0201733,-0.00863973 0.0173633,-0.0127499 0.0361526,-0.033091 0.0559905,-0.0610233l0.0177827 0.0125821c-0.0367398,0.0462183 -0.0648399,0.0765413 -0.084468,0.0912204 -0.0194604,0.0146372 -0.0372431,0.0218929 -0.0534321,0.0218929 -0.014092,0 -0.0251223,-0.00553614 -0.0328813,-0.0165665 -0.0134629,-0.0200056 -0.0358591,-0.0982664 -0.0670208,-0.234992l-0.0692856 0.0601845 -0.0518803 0.179295 -0.0787222 0 0.167468 -0.576345 0.0141339 -0.0489445c0.00171956,-0.00847197 0.00260031,-0.0158954 0.00260031,-0.0222704 0,-0.0080945 -0.00310359,-0.014805 -0.00931077,-0.0201733 -0.00620718,-0.00532643 -0.0153502,-0.0080945 -0.0270935,-0.0080945 -0.0076751,0 -0.0199217,0.00171956 -0.0368237,0.00499091l0 -0.017573 0.174724 -0.0298196z"/>
 <path class="fil0" d="M-1.75273 -136.439c-0.0041521,0.0289808 -0.00620718,0.0528869 -0.00620718,0.0721375 0,0.0511254 0.018328,0.0948692 0.0546064,0.13119 0.0363623,0.0360688 0.0803579,0.0541031 0.132322,0.0541031 0.0416888,0 0.0815322,-0.00855585 0.11995,-0.0257095 0.0384174,-0.0168601 0.0954564,-0.0546903 0.171075,-0.112904l0.0179924 0.0251223c-0.136768,0.135677 -0.267035,0.203327 -0.391136,0.203327 -0.0841325,0 -0.147672,-0.0265902 -0.190493,-0.0794771 -0.0425276,-0.0532224 -0.0637914,-0.111729 -0.0637914,-0.175856 0,-0.0860198 0.0262547,-0.174095 0.0794352,-0.264225 0.0531805,-0.0898783 0.119656,-0.159919 0.199972,-0.20987 0.0800643,-0.049951 0.162771,-0.0747798 0.247574,-0.0747798 0.0611072,0 0.106361,0.0124144 0.135845,0.0372431 0.0292744,0.0248287 0.0440374,0.0541031 0.0440374,0.0880749 0,0.0481895 -0.0189151,0.0939885 -0.057039,0.137732 -0.0502027,0.0573326 -0.12406,0.103467 -0.221529,0.138613 -0.0646721,0.0236544 -0.155683,0.0422759 -0.272613,0.0552775zm0.0059136 -0.0422759c0.0853488,-0.00973018 0.155054,-0.0265902 0.208528,-0.0502446 0.0711729,-0.0316231 0.124353,-0.0697469 0.159793,-0.113784 0.0354397,-0.044331 0.0531805,-0.0862715 0.0531805,-0.126199 0,-0.0242416 -0.00771704,-0.0437439 -0.0230672,-0.0588005 -0.0150147,-0.0150986 -0.0369076,-0.0224801 -0.0652593,-0.0224801 -0.0588005,0 -0.121124,0.0313295 -0.187264,0.0939885 -0.066182,0.062659 -0.114623,0.15518 -0.145911,0.27752z"/>
 <path class="fil0" d="M0.215112 -137.374l-0.0250384 0.0733119 -0.122172 0c-0.0380819,0.0770446 -0.0692017,0.150986 -0.0933594,0.221697 -0.0119111,0.0348525 -0.0143436,0.0596393 -0.00733957,0.0744862 0.00708793,0.0150147 0.0194604,0.0225639 0.0377464,0.0225639 0.0144694,0 0.0287711,-0.00499091 0.0430728,-0.0151405 0.0141759,-0.0101915 0.026045,-0.0248707 0.0357332,-0.0439955l0.017573 0c-0.023906,0.0532643 -0.0494478,0.0907171 -0.0765413,0.11261 -0.0271774,0.021851 -0.0531385,0.0328813 -0.0776317,0.0328813 -0.0263805,0 -0.0439536,-0.0120369 -0.0533902,-0.0358171 -0.00939466,-0.0239899 -0.00272613,-0.0686145 0.0196281,-0.134 0.0140081,-0.0410177 0.047183,-0.119446 0.0995246,-0.235286l-0.131274 0c-0.0707116,0.176527 -0.121585,0.288089 -0.152412,0.334936 -0.0306165,0.0467636 -0.059136,0.0701663 -0.0849713,0.0701663 -0.0120788,0 -0.0206766,-0.00411016 -0.0258772,-0.0120369 -0.00515867,-0.0080945 -0.00566196,-0.018286 -0.0015518,-0.0303229 0.00301971,-0.00880749 0.00700405,-0.0163987 0.0117853,-0.0227737 0.00679435,-0.00880749 0.0189151,-0.0210541 0.0364043,-0.0369076 0.0298196,-0.0272613 0.0538515,-0.0558646 0.0722214,-0.085852 0.0319586,-0.0512093 0.066182,-0.12364 0.102502,-0.217209l-0.0232769 0c-0.0244513,0 -0.0442891,0.00411016 -0.0590941,0.0122047 -0.0236125,0.0120788 -0.0484412,0.0322522 -0.0742765,0.06052l-0.0196701 0c0.0388788,-0.0582972 0.0744862,-0.0984342 0.107451,-0.120663 0.0248707,-0.016902 0.0548161,-0.025374 0.0894589,-0.025374l0.354774 0z"/>
</symbol>
 <g id="Diagram">
  <metadata id="CorelCorpID_0Corel-Layer"/>
  <g id="_47318264">
   <path id="_46942264" class="fil1 str0" d="M2.81236 1.13474l5.03285 0c0.924031,0 1.67762,0.753586 1.67762,1.67762l0 5.03285c0,0.924031 -0.753586,1.67762 -1.67762,1.67762l-5.03285 0c-0.924031,0 -1.67762,-0.753586 -1.67762,-1.67762l0 -5.03285c0,-0.924031 0.753586,-1.67762 1.67762,-1.67762z"/>
   <g>
    <line id="_46941544" class="fil2 str1" x1="1.13474" y1="7.0064" x2="0.295932" y2="7.0064"/>
    <line id="_46940824" class="fil2 str1" x1="1.13474" y1="6.16692" x2="0.295932" y2="6.16692"/>
    <line id="_46939480" class="fil2 str1" x1="1.13474" y1="4.48997" x2="0.295932" y2="4.48997"/>
    <line id="_46938456" class="fil2 str1" x1="1.13474" y1="5.32811" x2="0.295932" y2="5.32811"/>
    <line id="_46937568" class="fil2 str1" x1="1.13474" y1="3.65049" x2="0.295932" y2="3.65049"/>
    <line id="_46936680" class="fil2 str1" x1="1.13474" y1="2.81169" x2="0.295932" y2="2.81169"/>
    <line id="_46935760" class="fil2 str1" x1="1.13474" y1="7.84487" x2="0.295932" y2="7.84487"/>
   </g>
   <g>
    <line id="_46949248" class="fil2 str1" x1="10.3616" y1="7.0064" x2="9.52283" y2="7.0064"/>
    <line id="_46948104" class="fil2 str1" x1="10.3616" y1="6.16692" x2="9.52283" y2="6.16692"/>
    <line id="_46946792" class="fil2 str1" x1="10.3616" y1="4.48997" x2="9.52283" y2="4.48997"/>
    <line id="_46946072" class="fil2 str1" x1="10.3616" y1="5.32811" x2="9.52283" y2="5.32811"/>
    <line id="_46945352" class="fil2 str1" x1="10.3616" y1="3.65049" x2="9.52283" y2="3.65049"/>
    <line id="_46944040" class="fil2 str1" x1="10.3616" y1="2.81169" x2="9.52283" y2="2.81169"/>
    <line id="_46943152" class="fil2 str1" x1="10.3616" y1="7.84487" x2="9.52283" y2="7.84487"/>
   </g>
   <g>
    <line id="_47323888" class="fil2 str1" x1="3.65117" y1="10.3616" x2="3.65117" y2="9.52283"/>
    <line id="_47194056" class="fil2 str1" x1="4.49065" y1="10.3616" x2="4.49065" y2="9.52283"/>
    <line id="_47564688" class="fil2 str1" x1="6.16759" y1="10.3616" x2="6.16759" y2="9.52283"/>
    <line id="_47193136" class="fil2 str1" x1="5.32945" y1="10.3616" x2="5.32945" y2="9.52283"/>
    <line id="_46950688" class="fil2 str1" x1="7.00707" y1="10.3616" x2="7.00707" y2="9.52283"/>
    <line id="_47192248" class="fil2 str1" x1="7.84588" y1="10.3616" x2="7.84588" y2="9.52283"/>
    <line id="_46933768" class="fil2 str1" x1="2.81269" y1="10.3616" x2="2.81269" y2="9.52283"/>
   </g>
   <g>
    <line id="_47554840" class="fil2 str1" x1="3.65083" y1="1.13474" x2="3.65083" y2="0.295932"/>
    <line id="_47553960" class="fil2 str1" x1="4.49031" y1="1.13474" x2="4.49031" y2="0.295932"/>
    <line id="_47553088" class="fil2 str1" x1="6.16726" y1="1.13474" x2="6.16726" y2="0.295932"/>
    <line id="_47551584" class="fil2 str1" x1="5.32912" y1="1.13474" x2="5.32912" y2="0.295932"/>
    <line id="_47195896" class="fil2 str1" x1="7.00674" y1="1.13474" x2="7.00674" y2="0.295932"/>
    <line id="_47324832" class="fil2 str1" x1="7.84554" y1="1.13474" x2="7.84554" y2="0.295932"/>
    <line id="_47194976" class="fil2 str1" x1="2.81236" y1="1.13474" x2="2.81236" y2="0.295932"/>
   </g>
   <path id="_47563592" class="fil3 str2" d="M3.064 1.93161l4.52957 0c0.623738,0 1.13239,0.508653 1.13239,1.13239l0 4.52957c0,0.623738 -0.508653,1.13239 -1.13239,1.13239l-4.52957 0c-0.623738,0 -1.13239,-0.508653 -1.13239,-1.13239l0 -4.52957c0,-0.623738 0.508653,-1.13239 1.13239,-1.13239z"/>
   <g>
    <path id="path14333" class="fil4 str2" d="M5.76853 3.98438c0,0.175646 -0.155557,0.318034 -0.347393,0.318034 -0.191836,0 -0.347351,-0.142388 -0.347351,-0.318034 0,-0.175605 0.155515,-0.317992 0.347351,-0.317992 0.191836,0 0.347393,0.142388 0.347393,0.317992l0 0z"/>
    <path id="path14345" class="fil5 str3" d="M6.10611 3.49028c0,0 0.188564,0.176863 0.188564,0.513141m-0.188564 0.51096c0,0 0.188564,-0.176863 0.188564,-0.513099m-0.188564 0.513099l0 0 0 0z"/>
    <path id="path14347" class="fil5 str3" d="M6.74935 2.97823c0,0 0.377086,0.353726 0.377086,1.02624m-0.377086 1.02196c0,0 0.377086,-0.353726 0.377086,-1.0262m-0.377086 1.0262l0 0 0 0z"/>
    <path id="path14349" class="fil5 str3" d="M7.4508 2.46618c0,0 0.565609,0.530588 0.565609,1.53934m-0.565609 1.53296c0,0 0.565609,-0.530588 0.565609,-1.53934m-0.565609 1.53934l0 0 0 0z"/>
    <path id="path14351" class="fil5 str3" d="M4.7032 3.49028c0,0 -0.188522,0.176863 -0.188522,0.513141m0.188522 0.51096c0,0 -0.188522,-0.176863 -0.188522,-0.513099m0.188522 0.513099l0 0 0 0z"/>
    <path id="path14353" class="fil5 str3" d="M4.07942 2.97823c0,0 -0.377086,0.353726 -0.377086,1.02624m0.377086 1.02196c0,0 -0.377086,-0.353726 -0.377086,-1.0262m0.377086 1.0262l0 0 0 0z"/>
    <path id="path14355" class="fil5 str3" d="M3.37797 2.46618c0,0 -0.565609,0.530588 -0.565609,1.53934m0.565609 1.53296c0,0 -0.565609,-0.530588 -0.565609,-1.53934m0.565609 1.53934l0 0 0 0z"/>
   </g>
   <path id="_47325784" class="fil4" d="M4.00728 6.71236c0,0.0466797 -0.0078848,0.0884524 -0.0241577,0.124815 -0.0162729,0.036614 -0.0398434,0.0675241 -0.0715923,0.0927303 -0.0314553,0.0249546 -0.0705438,0.0442471 -0.117182,0.0572487 -0.0466378,0.0127499 -0.100363,0.0192507 -0.161135,0.0192507 -0.0582972,0 -0.10959,-0.00566196 -0.153544,-0.0173633 -0.0439116,-0.0116594 -0.0808192,-0.0287292 -0.110387,-0.0512512 -0.0298196,-0.022522 -0.05209,-0.0504543 -0.0667272,-0.0835453 -0.0149308,-0.033091 -0.0222284,-0.071089 -0.0222284,-0.11391 0,-0.0290228 0.00431986,-0.0567035 0.0130015,-0.0822032 0.00868167,-0.0257934 0.0217251,-0.0496575 0.0390885,-0.0716342 0.0170698,-0.0219348 0.0385013,-0.0425695 0.0642527,-0.0618202 0.0257934,-0.0195442 0.0553614,-0.037998 0.088704,-0.0553614 -0.0270935,-0.0148889 -0.0515448,-0.0309101 -0.073228,-0.0479798 -0.0216832,-0.0173633 -0.040137,-0.0361107 -0.055613,-0.0564518 -0.015476,-0.0205927 -0.0271355,-0.0428631 -0.0349783,-0.0672724 -0.0078848,-0.0244093 -0.011953,-0.050706 -0.011953,-0.0794771 0,-0.0412274 0.00733957,-0.0786383 0.0219768,-0.112275 0.0143856,-0.0336362 0.0360688,-0.0629526 0.0650915,-0.0876135 0.0287711,-0.0247029 0.0651335,-0.0434083 0.1085,-0.0567035 0.0434083,-0.0132951 0.0938627,-0.0197959 0.150818,-0.0197959 0.0567035,0 0.105522,0.00595554 0.145953,0.0181602 0.0404306,0.0122047 0.0737732,0.0293164 0.0998182,0.0515448 0.0257934,0.0222284 0.045044,0.0491122 0.0575003,0.0800223 0.0124982,0.0309101 0.0187474,0.0653851 0.0187474,0.102796 0,0.0249546 -0.00406822,0.0491122 -0.0122047,0.0726828 -0.00843003,0.0236125 -0.0198378,0.0461345 -0.0347267,0.0672724 -0.0149308,0.0211799 -0.033091,0.0412694 -0.0548161,0.0599748 -0.0216832,0.0187054 -0.0463861,0.0358171 -0.0737732,0.0512512 0.0322941,0.0171117 0.0610233,0.0350203 0.0865231,0.0539773 0.0254998,0.0192507 0.0469313,0.0396337 0.0642947,0.0615685 0.017615,0.0219768 0.0309101,0.0455892 0.040137,0.0705438 0.00922689,0.0247029 0.0138403,0.0517964 0.0138403,0.0808192zm-0.230295 -0.498839c0,-0.0187054 -0.00272613,-0.03523 -0.00813644,-0.0501607 -0.00515867,-0.0149308 -0.0135468,-0.0273871 -0.0249546,-0.0377044 -0.0114078,-0.0103173 -0.0254998,-0.0182021 -0.0420662,-0.0236125 -0.0168181,-0.00515867 -0.0363204,-0.00784286 -0.0590941,-0.00784286 -0.0444988,0 -0.0775898,0.0102754 -0.0995666,0.0306165 -0.0217251,0.0203411 -0.0325458,0.048567 -0.0325458,0.0846358 0,0.0168181 0.00297777,0.0325458 0.00838808,0.0469313 0.0057039,0.0141339 0.0141339,0.0276807 0.0257934,0.0404306 0.0116594,0.0127499 0.0268419,0.0252062 0.0452957,0.0374109 0.0187054,0.0122466 0.0406822,0.0252481 0.0658884,0.0387949 0.0387949,-0.0227737 0.0686565,-0.0469313 0.0895428,-0.0729344 0.0208863,-0.026045 0.0314553,-0.0548161 0.0314553,-0.086565zm0.0238641 0.513225c0,-0.0195442 -0.003523,-0.0374109 -0.0100238,-0.0536837 -0.00650077,-0.0160212 -0.0168181,-0.0312037 -0.0309101,-0.0455892 -0.0141339,-0.0143856 -0.0317489,-0.0282259 -0.0529288,-0.0412274 -0.021138,-0.0132951 -0.0458409,-0.0268419 -0.0737732,-0.0406822 -0.0244093,0.0132951 -0.0458409,0.0265902 -0.0645463,0.0398853 -0.0184538,0.0130015 -0.0339298,0.0270935 -0.0461345,0.0414791 -0.0122047,0.0146372 -0.021138,0.0301132 -0.0273871,0.0461345 -0.00595554,0.0162729 -0.00893331,0.0336362 -0.00893331,0.0520481 0,0.041521 0.0132951,0.0729763 0.0398434,0.0947015 0.0268838,0.0216832 0.0667272,0.0325458 0.119656,0.0325458 0.0520481,0 0.090843,-0.0111142 0.116636,-0.0333846 0.0254998,-0.0222284 0.0385013,-0.0528869 0.0385013,-0.092227zm1.03618 -0.256592c0,0.0821613 -0.00650077,0.156228 -0.0197959,0.22241 -0.0132951,0.066182 -0.0349783,0.122634 -0.064798,0.169272 -0.0298616,0.0466797 -0.0689081,0.0824549 -0.11693,0.107409 -0.0477282,0.0247029 -0.106613,0.0371592 -0.176066,0.0371592 -0.0702502,0 -0.128547,-0.0119111 -0.174682,-0.0360688 -0.0460925,-0.0241157 -0.0827065,-0.0588424 -0.10959,-0.104138 -0.0270935,-0.0453376 -0.0460925,-0.100657 -0.0569551,-0.166042 -0.0108626,-0.0653432 -0.0162729,-0.13941 -0.0162729,-0.222158 0,-0.0816161 0.00679435,-0.155683 0.0203411,-0.222158 0.0135887,-0.0664336 0.0352719,-0.122885 0.0650915,-0.169523 0.0298616,-0.0466378 0.0689081,-0.0824549 0.11693,-0.107409 0.0477282,-0.0249546 0.106319,-0.0371592 0.175227,-0.0371592 0.0702502,0 0.128841,0.0119111 0.175227,0.0360688 0.0461345,0.0241577 0.0830001,0.0588424 0.109884,0.10418 0.0270935,0.0452957 0.0458409,0.100615 0.0564099,0.166 0.010569,0.0653432 0.0159793,0.13941 0.0159793,0.222158zm-0.210457 0.0103173c0,-0.0488606 -0.00138403,-0.0917237 -0.00406822,-0.129135 -0.00272613,-0.0374528 -0.00679435,-0.069705 -0.0122047,-0.0973857 -0.0057039,-0.0276807 -0.0124982,-0.0509996 -0.0209283,-0.0699986 -0.00813644,-0.0189571 -0.0181602,-0.0341814 -0.0295261,-0.0455473 -0.0117014,-0.0114078 -0.0249965,-0.0195442 -0.0398853,-0.0244093 -0.0149308,-0.00461345 -0.0312037,-0.00704599 -0.0493639,-0.00704599 -0.0312037,0 -0.056997,0.00759122 -0.0773381,0.0224801 -0.0203411,0.0152244 -0.036614,0.037998 -0.0485251,0.0681112 -0.011953,0.0301132 -0.0203411,0.0678177 -0.0249546,0.11282 -0.00490703,0.045044 -0.00733957,0.0973857 -0.00733957,0.15736 0,0.073228 0.00297777,0.133706 0.00893331,0.181434 0.0057039,0.0480218 0.0149308,0.0862715 0.027429,0.114497 0.0124563,0.0284775 0.0284775,0.0482734 0.0479798,0.0596812 0.0195442,0.0113659 0.0431567,0.0170698 0.0708374,0.0170698 0.0205927,0 0.038753,-0.00322941 0.0547742,-0.0100238 0.0157277,-0.00650077 0.0298196,-0.0165665 0.0417727,-0.029568 0.011953,-0.0132951 0.0216832,-0.0301132 0.029568,-0.0502027 0.00813644,-0.0200475 0.0146372,-0.0434083 0.0195442,-0.0699566 0.00515867,-0.0263386 0.00838808,-0.0564518 0.0102754,-0.0897944 0.00192926,-0.0333846 0.00301971,-0.0702502 0.00301971,-0.110387zm1.01475 0.422885c0,0.0151824 -0.000796868,0.0284775 -0.0021809,0.0392982 -0.00109045,0.0108626 -0.00322941,0.0195442 -0.00595554,0.0265902 -0.00243254,0.00679435 -0.00595554,0.0116594 -0.0103173,0.0146791 -0.00406822,0.00297777 -0.00893331,0.00431986 -0.014092,0.00431986l-0.59136 0c-0.0116594,0 -0.0216832,-0.00109045 -0.0301132,-0.00327135 -0.00868167,-0.00213896 -0.0154341,-0.00620718 -0.0208863,-0.0122047 -0.00515867,-0.00620718 -0.00893331,-0.0148889 -0.0113659,-0.0265483 -0.00243254,-0.0117014 -0.003523,-0.0268838 -0.003523,-0.0453376 0,-0.017615 0.000796868,-0.0325458 0.00243254,-0.0450021 0.00134209,-0.0124982 0.00431986,-0.0236125 0.00868167,-0.0333846 0.00406822,-0.00977212 0.00947854,-0.0192507 0.0162729,-0.0284775 0.00650077,-0.00922689 0.0151824,-0.0195442 0.0257514,-0.0306585l0.177953 -0.190661c0.0355235,-0.0372012 0.0642947,-0.0708374 0.0859779,-0.101454 0.0217251,-0.0304068 0.0385433,-0.0583391 0.0507479,-0.0832937 0.0122047,-0.0252062 0.0205927,-0.048567 0.0252062,-0.069705 0.0043618,-0.0211799 0.00654271,-0.0412274 0.00654271,-0.0602264 0,-0.017615 -0.00272613,-0.0341814 -0.00813644,-0.0496575 -0.0057039,-0.0157277 -0.0138403,-0.0292744 -0.0247029,-0.0409339 -0.0108626,-0.0116594 -0.0244093,-0.0208863 -0.0409758,-0.0273871 -0.0165245,-0.00679435 -0.0357752,-0.0100657 -0.0580455,-0.0100657 -0.0312037,0 -0.0588424,0.00406822 -0.0830001,0.011953 -0.0241157,0.00784286 -0.0452957,0.0168181 -0.0634559,0.0265902 -0.0184538,0.00977212 -0.0336362,0.0187054 -0.0458409,0.0270935 -0.0122047,0.00817838 -0.0217251,0.0122466 -0.0284775,0.0122466 -0.00490703,0 -0.00897525,-0.00163568 -0.0124982,-0.00490703 -0.00327135,-0.00297777 -0.00624912,-0.00838808 -0.00813644,-0.0157277 -0.0021809,-0.00733957 -0.00406822,-0.0173633 -0.00541031,-0.0298196 -0.00109045,-0.0124982 -0.00192926,-0.0276807 -0.00192926,-0.0455892 0,-0.0122047 0.000545226,-0.022522 0.00138403,-0.0306585 0.000545226,-0.00838808 0.00188732,-0.015476 0.003523,-0.0214316 0.00163568,-0.00624912 0.003523,-0.0113659 0.00624912,-0.0159793 0.00268419,-0.00461345 0.00729763,-0.0100657 0.0137984,-0.0162729 0.00679435,-0.00624912 0.018999,-0.0143856 0.0366559,-0.0241577 0.0178666,-0.00977212 0.0395918,-0.0195442 0.0656368,-0.0287711 0.026045,-0.00922689 0.0545226,-0.0170698 0.0857262,-0.0233189 0.0314553,-0.00650077 0.0640011,-0.00947854 0.097889,-0.00947854 0.0534321,0 0.100112,0.00650077 0.140249,0.0200475 0.0398853,0.0135887 0.073228,0.0322941 0.0995666,0.0564518 0.0265902,0.0241157 0.0463861,0.0528869 0.0593876,0.0859779 0.0130435,0.033091 0.0192507,0.0686145 0.0192507,0.106864 0,0.0333846 -0.00297777,0.066182 -0.00947854,0.0984761 -0.00624912,0.0322941 -0.0195442,0.0672724 -0.0395918,0.104432 -0.0200895,0.0374109 -0.048567,0.0786802 -0.085181,0.123976 -0.0363623,0.0452957 -0.0848874,0.0979309 -0.145407,0.157864l-0.119866 0.123137 0.405228 0c0.00515867,0 0.0103173,0.00163568 0.0146372,0.00490703 0.00461345,0.00297777 0.00843003,0.00784286 0.0117014,0.0146372 0.00297777,0.00650077 0.00541031,0.0151824 0.00704599,0.026045 0.00163568,0.0108206 0.00243254,0.0238641 0.00243254,0.0387949zm0.400363 -0.029568c0,0.0493639 -0.00838808,0.0824549 -0.0257514,0.099273 -0.0171117,0.0170698 -0.0480218,0.0254998 -0.0925206,0.0254998 -0.0444988,0 -0.0754089,-0.00843003 -0.092227,-0.0249546 -0.0170698,-0.0168181 -0.0254998,-0.0482734 -0.0254998,-0.0949531 0,-0.0499091 0.00868167,-0.0832937 0.0257934,-0.100112 0.0173633,-0.0170698 0.0485251,-0.0254578 0.0935691,-0.0254578 0.0439536,0 0.0743184,0.00838808 0.0914301,0.0249546 0.0168181,0.0168181 0.0252062,0.0485251 0.0252062,0.09575zm0.849881 0.0349783c0,0.0149308 -0.000838808,0.0273871 -0.00247449,0.0377044 -0.00159374,0.0103173 -0.00377464,0.0187054 -0.00675241,0.0247029 -0.00297777,0.00595554 -0.00624912,0.010569 -0.0100657,0.0130015 -0.003523,0.00272613 -0.00784286,0.00406822 -0.0127499,0.00406822l-0.567202 0c-0.00431986,0 -0.00838808,-0.00134209 -0.0119111,-0.00406822 -0.00381658,-0.00243254 -0.00704599,-0.00704599 -0.0100238,-0.0130015 -0.00301971,-0.00599748 -0.00515867,-0.0143856 -0.00679435,-0.0247029 -0.00163568,-0.0103173 -0.00243254,-0.0227737 -0.00243254,-0.0377044 0,-0.015476 0.000796868,-0.0282259 0.00213896,-0.0385013 0.00138403,-0.0103173 0.00327135,-0.0187474 0.00624912,-0.0249546 0.00297777,-0.00654271 0.00624912,-0.0111562 0.0100657,-0.0141339 0.003523,-0.00268419 0.00784286,-0.00431986 0.0127079,-0.00431986l0.191542 0 0 -0.669201 -0.165497 0.0914301c-0.0122047,0.00595554 -0.0219348,0.00947854 -0.0298196,0.0108206 -0.00759122,0.00138403 -0.0135468,-0.000251643 -0.0181602,-0.00486509 -0.00461345,-0.0043618 -0.00759122,-0.0122047 -0.00922689,-0.0233189 -0.00138403,-0.0111142 -0.0021809,-0.0268838 -0.0021809,-0.0469313 0,-0.0127499 0.000251643,-0.0230672 0.000796868,-0.0314553 0.000293583,-0.00817838 0.00163568,-0.0152244 0.00381658,-0.0208863 0.0021809,-0.00599748 0.00515867,-0.0106109 0.00868167,-0.0143856 0.00377464,-0.00381658 0.00893331,-0.00759122 0.0151824,-0.011953l0.221068 -0.142933c0.00243254,-0.0021809 0.0057039,-0.00381658 0.00977212,-0.00515867 0.00406822,-0.00138403 0.00922689,-0.00243254 0.015476,-0.00327135 0.00650077,-0.000796868 0.0146372,-0.00134209 0.0252062,-0.00163568 0.0103173,-0.000251643 0.0236125,-0.000251643 0.040137,-0.000251643 0.0200895,0 0.0363623,0.000251643 0.0488606,0.00109045 0.0124563,0.000796868 0.0216832,0.0021809 0.028184,0.00406822 0.00624912,0.00163568 0.010569,0.00431986 0.0127499,0.00729763 0.00188732,0.00327135 0.00297777,0.00733957 0.00297777,0.011953l0 0.849587 0.167636 0c0.00490703,0 0.00922689,0.00163568 0.0132951,0.00431986 0.00381658,0.00297777 0.00733957,0.00759122 0.0103173,0.0141339 0.00297777,0.00620718 0.00486509,0.0146372 0.00624912,0.0249546 0.00134209,0.0102754 0.0021809,0.0230253 0.0021809,0.0385013zm0.824884 0c0,0.0149308 -0.000838808,0.0273871 -0.00247449,0.0377044 -0.00159374,0.0103173 -0.00377464,0.0187054 -0.00675241,0.0247029 -0.00297777,0.00595554 -0.00624912,0.010569 -0.0100657,0.0130015 -0.003523,0.00272613 -0.00784286,0.00406822 -0.0127499,0.00406822l-0.567202 0c-0.00431986,0 -0.00838808,-0.00134209 -0.0119111,-0.00406822 -0.00381658,-0.00243254 -0.00704599,-0.00704599 -0.0100238,-0.0130015 -0.00301971,-0.00599748 -0.00515867,-0.0143856 -0.00679435,-0.0247029 -0.00163568,-0.0103173 -0.00243254,-0.0227737 -0.00243254,-0.0377044 0,-0.015476 0.000796868,-0.0282259 0.00213896,-0.0385013 0.00138403,-0.0103173 0.00327135,-0.0187474 0.00624912,-0.0249546 0.00297777,-0.00654271 0.00624912,-0.0111562 0.0100657,-0.0141339 0.003523,-0.00268419 0.00784286,-0.00431986 0.0127079,-0.00431986l0.191542 0 0 -0.669201 -0.165497 0.0914301c-0.0122047,0.00595554 -0.0219348,0.00947854 -0.0298196,0.0108206 -0.00759122,0.00138403 -0.0135468,-0.000251643 -0.0181602,-0.00486509 -0.00461345,-0.0043618 -0.00759122,-0.0122047 -0.00922689,-0.0233189 -0.00138403,-0.0111142 -0.0021809,-0.0268838 -0.0021809,-0.0469313 0,-0.0127499 0.000251643,-0.0230672 0.000796868,-0.0314553 0.000293583,-0.00817838 0.00163568,-0.0152244 0.00381658,-0.0208863 0.0021809,-0.00599748 0.00515867,-0.0106109 0.00868167,-0.0143856 0.00377464,-0.00381658 0.00893331,-0.00759122 0.0151824,-0.011953l0.221068 -0.142933c0.00243254,-0.0021809 0.0057039,-0.00381658 0.00977212,-0.00515867 0.00406822,-0.00138403 0.00922689,-0.00243254 0.015476,-0.00327135 0.00650077,-0.000796868 0.0146372,-0.00134209 0.0252062,-0.00163568 0.0103173,-0.000251643 0.0236125,-0.000251643 0.040137,-0.000251643 0.0200895,0 0.0363623,0.000251643 0.0488606,0.00109045 0.0124563,0.000796868 0.0216832,0.0021809 0.028184,0.00406822 0.00624912,0.00163568 0.010569,0.00431986 0.0127499,0.00729763 0.00188732,0.00327135 0.00297777,0.00733957 0.00297777,0.011953l0 0.849587 0.167636 0c0.00490703,0 0.00922689,0.00163568 0.0132951,0.00431986 0.00381658,0.00297777 0.00733957,0.00759122 0.0103173,0.0141339 0.00297777,0.00620718 0.00486509,0.0146372 0.00624912,0.0249546 0.00134209,0.0102754 0.0021809,0.0230253 0.0021809,0.0385013z"/>
   <path id="_46390776" class="fil4" d="M4.47144 7.85536c0,0.0572067 -0.00616524,0.108752 -0.0187474,0.154634 -0.0125821,0.0456312 -0.0305746,0.0845938 -0.054229,0.116888 -0.0236963,0.0322941 -0.0525514,0.0572067 -0.0870683,0.0744862 -0.034517,0.0172375 -0.0734796,0.0258772 -0.117391,0.0258772 -0.0216832,0 -0.0418985,-0.0019712 -0.0606459,-0.00616524 -0.0187474,-0.0039424 -0.0367398,-0.0106109 -0.0537676,-0.019712 -0.0172375,-0.00914301 -0.0340137,-0.0207186 -0.0505382,-0.0347686 -0.0167762,-0.0138403 -0.033804,-0.0308262 -0.0510415,-0.0505802l0 0.0700405c0,0.00541031 -0.00125821,0.009856 -0.0039424,0.0135468 -0.00272613,0.00348106 -0.00692017,0.00641688 -0.0130854,0.00889137 -0.0059136,0.00247449 -0.01405,0.00419404 -0.0241577,0.00520061 -0.0101076,0.00096463 -0.0224381,0.00146791 -0.0367398,0.00146791 -0.0150566,0 -0.0273871,-0.000503285 -0.0372431,-0.00146791 -0.009856,-0.00100657 -0.0179924,-0.00272613 -0.023906,-0.00520061 -0.0059136,-0.00247449 -0.0101076,-0.00541031 -0.0125821,-0.00889137 -0.00247449,-0.00369076 -0.00369076,-0.00813644 -0.00369076,-0.0135468l0 -0.949867c0,-0.00494897 0.00146791,-0.00914301 0.00440374,-0.0130854 0.00272613,-0.0039424 0.0076751,-0.00717181 0.014805,-0.00960436 0.00692017,-0.00272613 0.0162729,-0.00469733 0.0278904,-0.00616524 0.0113239,-0.00150986 0.0261289,-0.00222284 0.0438697,-0.00222284 0.0179924,0 0.0325458,0.000712987 0.0441633,0.00222284 0.0115756,0.00146791 0.0207186,0.00343911 0.0278484,0.00616524 0.00692017,0.00243254 0.0118272,0.00566196 0.014805,0.00960436 0.00293583,0.0039424 0.00419404,0.00813644 0.00419404,0.0130854l0 0.356074c0.0165245,-0.0162729 0.0327974,-0.0303229 0.0493219,-0.0419404 0.0162729,-0.0115756 0.0325458,-0.0209702 0.0490703,-0.0283517 0.0162729,-0.00763316 0.0333007,-0.0130854 0.0505382,-0.0162729 0.0172795,-0.00343911 0.0355235,-0.00515867 0.0549839,-0.00515867 0.0476024,0 0.088033,0.00960436 0.121334,0.0286034 0.0333007,0.0189571 0.0601845,0.0446246 0.0811128,0.0769187 0.0209702,0.0322941 0.0362785,0.0700405 0.0458828,0.112946 0.00960436,0.0431567 0.0145533,0.0885362 0.0145533,0.136348zm-0.188648 0.0128338c0,-0.0273871 -0.0019712,-0.0537676 -0.00616524,-0.0793932 -0.0039424,-0.0254159 -0.0111142,-0.0481057 -0.0212219,-0.0678177 -0.0101076,-0.019712 -0.0231511,-0.0355235 -0.039424,-0.0473507 -0.0160632,-0.0118272 -0.0365301,-0.0177408 -0.0609394,-0.0177408 -0.0120788,0 -0.023906,0.00171956 -0.0354816,0.00515867 -0.0116175,0.00322941 -0.0234447,0.00914301 -0.0357752,0.0172795 -0.0123305,0.00813644 -0.0249126,0.0187474 -0.0379561,0.0317908 -0.0128338,0.0128338 -0.0266322,0.0291067 -0.0411855,0.0483573l0 0.21377c0.0256256,0.0327974 0.0500349,0.05771 0.0734796,0.0747378 0.0234447,0.0172375 0.047854,0.0256256 0.073228,0.0256256 0.0236963,0 0.04366,-0.0059136 0.0599329,-0.0179924 0.0165245,-0.0120788 0.0300713,-0.0275968 0.0409339,-0.0468475 0.0108626,-0.0192507 0.0187474,-0.0411855 0.0234447,-0.0658465 0.00490703,-0.0244093 0.00712987,-0.0490703 0.00712987,-0.0737313zm0.424898 0.529708c-0.00222284,0.00616524 -0.00541031,0.0113239 -0.00935271,0.0150147 -0.00369076,0.0039424 -0.00914301,0.00717181 -0.0162729,0.00939466 -0.00692017,0.00247449 -0.0155599,0.00419404 -0.0259192,0.00541031 -0.0103593,0.00125821 -0.0234028,0.0019712 -0.039424,0.0019712 -0.0197539,0 -0.0357752,-0.00096463 -0.0483573,-0.00293583 -0.0125821,-0.0019712 -0.0219348,-0.00494897 -0.0286034,-0.00863973 -0.00641688,-0.0039424 -0.0101076,-0.00889137 -0.0110723,-0.014805 -0.00100657,-0.00616524 0,-0.0130854 0.00268419,-0.0214735l0.432028 -1.213c0.0019712,-0.00616524 0.00494897,-0.0113239 0.00889137,-0.015518 0.00369076,-0.0039424 0.00914301,-0.00717181 0.0157696,-0.00960436 0.00666853,-0.00247449 0.0155599,-0.00419404 0.0263805,-0.00545226 0.0108626,-0.00121627 0.023948,-0.00171956 0.0394659,-0.00171956 0.0202153,0 0.0364882,0.000754928 0.048609,0.00272613 0.0123305,0.0019712 0.0216832,0.00490703 0.0278484,0.00863973 0.00641688,0.0039424 0.009856,0.00884943 0.0108626,0.014763 0.00096463,0.00616524 0.000251643,0.0133371 -0.00222284,0.0214735l-0.431315 1.21376zm1.09318 -0.811296c0,0.0228995 -0.00272613,0.0401789 -0.00813644,0.0512931 -0.00515867,0.0110723 -0.0115756,0.0164826 -0.0194604,0.0164826l-0.0757025 0c0.010569,0.0116175 0.0179924,0.024661 0.0226478,0.0394659 0.00469733,0.0145533 0.00692017,0.0298616 0.00692017,0.0458828 0,0.0374947 -0.00641688,0.0707535 -0.0187474,0.100112 -0.0125821,0.0291067 -0.0305746,0.053516 -0.0539773,0.0734796 -0.0231931,0.0199636 -0.0515448,0.0352719 -0.0843422,0.0456312 -0.0330491,0.0103593 -0.0697889,0.015518 -0.110219,0.015518 -0.0207186,0 -0.0404725,-0.00247449 -0.0592199,-0.00763316 -0.0189571,-0.00494897 -0.0332588,-0.0108626 -0.0433664,-0.0177408 -0.00595554,0.00641688 -0.0111142,0.0137984 -0.0155599,0.0224381 -0.00469733,0.00863973 -0.00687823,0.0182441 -0.00687823,0.028855 0,0.01405 0.00616524,0.025374 0.0184538,0.034517 0.0121208,0.00884943 0.0293583,0.0137984 0.0515448,0.014805l0.156857 0.00566196c0.0364882,0.00146791 0.0692856,0.00666853 0.097889,0.015518 0.0286034,0.00889137 0.0527611,0.0214735 0.0722634,0.0374947 0.0194604,0.0162729 0.0342653,0.0355235 0.0446246,0.0582133 0.0103593,0.0226478 0.015518,0.048567 0.015518,0.077422 0,0.0317908 -0.00687823,0.0616524 -0.0209283,0.0900042 -0.0138403,0.0281001 -0.0347686,0.0525094 -0.062659,0.073228 -0.0281001,0.0207186 -0.0631203,0.0369915 -0.10527,0.0490703 -0.0421921,0.0120788 -0.0912624,0.0179924 -0.147714,0.0179924 -0.0547742,0 -0.101622,-0.00419404 -0.140584,-0.0127918 -0.038711,-0.00889137 -0.0705019,-0.0207186 -0.0951628,-0.0362785 -0.0249126,-0.0152663 -0.0429051,-0.033762 -0.0542709,-0.0552355 -0.0113239,-0.0214316 -0.0170278,-0.0448763 -0.0170278,-0.0705019 0,-0.0158115 0.00201314,-0.0310779 0.00616524,-0.0453795 0.00419404,-0.0145533 0.0101496,-0.0283517 0.0180344,-0.0416888 0.0078848,-0.0130435 0.0177408,-0.0258772 0.0293164,-0.0377044 0.0116175,-0.0121208 0.024661,-0.0236963 0.0397176,-0.0347686 -0.0207186,-0.0111142 -0.0367398,-0.0261708 -0.0481057,-0.0451279 -0.0113239,-0.018999 -0.0169859,-0.0399692 -0.0169859,-0.062659 0,-0.0283517 0.00666853,-0.054229 0.0194604,-0.0776737 0.0130854,-0.0231931 0.0301132,-0.044373 0.0507899,-0.0631203 -0.0169859,-0.0167762 -0.0305746,-0.0369915 -0.0406822,-0.0606878 -0.0101076,-0.0236544 -0.0150147,-0.0530127 -0.0150147,-0.088033 0,-0.0377044 0.00662659,-0.0712568 0.0199636,-0.100825 0.0130854,-0.0296099 0.0315811,-0.0547742 0.0552355,-0.0752411 0.0234447,-0.0204669 0.0517964,-0.0359849 0.0843422,-0.0468475 0.0327974,-0.0108626 0.0690339,-0.0162729 0.1085,-0.0162729 0.0202153,0 0.0397176,0.00125821 0.0581714,0.00343911 0.0184957,0.00247449 0.0357752,0.00595554 0.0515448,0.0101076l0.20446 0c0.00813644,0 0.014763,0.00545226 0.0199636,0.0160632 0.00490703,0.0106109 0.00763316,0.0283517 0.00763316,0.053516zm-0.233524 0.15237c0,-0.0347686 -0.00960436,-0.0616524 -0.028855,-0.0808611 -0.0192087,-0.0192507 -0.0463442,-0.028855 -0.0816161,-0.028855 -0.0177408,0 -0.0335523,0.00293583 -0.0468475,0.00884943 -0.0135887,0.00616524 -0.024661,0.0143017 -0.033804,0.024661 -0.00884943,0.0103593 -0.015518,0.0224381 -0.019712,0.0360268 -0.00444569,0.0137984 -0.00666853,0.0281001 -0.00666853,0.0431567 0,0.0325458 0.009856,0.058423 0.0291067,0.0776737 0.0192507,0.018999 0.0458828,0.0283517 0.0801482,0.0283517 0.0182441,0 0.0342653,-0.00272613 0.0476024,-0.00863973 0.0135468,-0.00566196 0.024661,-0.0137984 0.0335104,-0.023906 0.00914301,-0.0101076 0.0158115,-0.0217251 0.0202153,-0.0350203 0.00469733,-0.0130854 0.00692017,-0.0271355 0.00692017,-0.0414371zm0.0426534 0.514399c0,-0.0216832 -0.00863973,-0.0382077 -0.0258772,-0.0498252 -0.0175311,-0.0115756 -0.0411855,-0.0179924 -0.0715084,-0.0187054l-0.12947 -0.0037327c-0.0125821,0.00914301 -0.0224381,0.0180344 -0.0298616,0.0264225 -0.00763316,0.00834614 -0.0135468,0.0165245 -0.0182441,0.0241577 -0.00440374,0.00763316 -0.00738151,0.0150147 -0.00884943,0.0224381 -0.00150986,0.00712987 -0.00222284,0.0145533 -0.00222284,0.0224381 0,0.023906 0.0120788,0.0421501 0.0364882,0.0547323 0.0244093,0.0125821 0.0586747,0.0187474 0.102838,0.0187474 0.0275968,0 0.0507899,-0.00272613 0.0695372,-0.00813644 0.0187474,-0.00566196 0.033762,-0.0130854 0.0453795,-0.0221865 0.0115756,-0.00914301 0.019712,-0.0192507 0.024661,-0.0305746 0.00465539,-0.0113659 0.00712987,-0.0231931 0.00712987,-0.0357752zm0.445869 0.144527c-0.00222284,0.00616524 -0.00541031,0.0113239 -0.00935271,0.0150147 -0.00369076,0.0039424 -0.00914301,0.00717181 -0.0162729,0.00939466 -0.00692017,0.00247449 -0.0155599,0.00419404 -0.0259192,0.00541031 -0.0103593,0.00125821 -0.0234028,0.0019712 -0.039424,0.0019712 -0.0197539,0 -0.0357752,-0.00096463 -0.0483573,-0.00293583 -0.0125821,-0.0019712 -0.0219348,-0.00494897 -0.0286034,-0.00863973 -0.00641688,-0.0039424 -0.0101076,-0.00889137 -0.0110723,-0.014805 -0.00100657,-0.00616524 0,-0.0130854 0.00268419,-0.0214735l0.432028 -1.213c0.0019712,-0.00616524 0.00494897,-0.0113239 0.00889137,-0.015518 0.00369076,-0.0039424 0.00914301,-0.00717181 0.0157696,-0.00960436 0.00666853,-0.00247449 0.0155599,-0.00419404 0.0263805,-0.00545226 0.0108626,-0.00121627 0.023948,-0.00171956 0.0394659,-0.00171956 0.0202153,0 0.0364882,0.000754928 0.048609,0.00272613 0.0123305,0.0019712 0.0216832,0.00490703 0.0278484,0.00863973 0.00641688,0.0039424 0.009856,0.00884943 0.0108626,0.014763 0.00096463,0.00616524 0.000251643,0.0133371 -0.00222284,0.0214735l-0.431315 1.21376zm1.16024 -0.211841c0,0.00494897 -0.00146791,0.00914301 -0.00419404,0.0128338 -0.00293583,0.00343911 -0.0078848,0.00666853 -0.0145533,0.00884943 -0.00662659,0.00247449 -0.0160212,0.00419404 -0.0278484,0.00545226 -0.0118272,0.00121627 -0.0263805,0.0019712 -0.04366,0.0019712 -0.0177408,0 -0.0325458,-0.000754928 -0.044373,-0.0019712 -0.0118272,-0.00125821 -0.0212219,-0.00297777 -0.0278484,-0.00545226 -0.00666853,-0.0021809 -0.0116175,-0.00541031 -0.0145533,-0.00884943 -0.00272613,-0.00369076 -0.00419404,-0.0078848 -0.00419404,-0.0128338l0 -0.367692c0,-0.0312876 -0.00222284,-0.0556969 -0.00692017,-0.0737313 -0.00469733,-0.0177408 -0.0111142,-0.0330071 -0.0199636,-0.0458409 -0.00863973,-0.0125821 -0.0197539,-0.0224381 -0.0335523,-0.0296099 -0.0135468,-0.00687823 -0.029568,-0.0103593 -0.0480637,-0.0103593 -0.0229414,0 -0.0463861,0.00838808 -0.0700405,0.0251643 -0.0234447,0.0170278 -0.0481057,0.0414371 -0.0737313,0.0737313l0 0.428338c0,0.00494897 -0.00125821,0.00914301 -0.00419404,0.0128338 -0.00297777,0.00343911 -0.0078848,0.00666853 -0.014805,0.00884943 -0.00712987,0.00247449 -0.0162729,0.00419404 -0.0278484,0.00545226 -0.0116175,0.00121627 -0.0261708,0.0019712 -0.0441633,0.0019712 -0.0177408,0 -0.0325458,-0.000754928 -0.0438697,-0.0019712 -0.0116175,-0.00125821 -0.0209702,-0.00297777 -0.0278904,-0.00545226 -0.00712987,-0.0021809 -0.0120788,-0.00541031 -0.014805,-0.00884943 -0.00293583,-0.00369076 -0.00440374,-0.0078848 -0.00440374,-0.0128338l0 -0.644373c0,-0.00465539 0.00121627,-0.00910107 0.00369076,-0.0125402 0.00247449,-0.0037327 0.00666853,-0.00666853 0.0130435,-0.00914301 0.00616524,-0.00247449 0.0143017,-0.00419404 0.0241996,-0.00541031 0.009856,-0.00125821 0.0221865,-0.00171956 0.0372012,-0.00171956 0.0153083,0 0.028142,0.000461345 0.0382497,0.00171956 0.0101076,0.00121627 0.0179924,0.00293583 0.0234028,0.00541031 0.0057039,0.00247449 0.0096463,0.00541031 0.0118691,0.00914301 0.00243254,0.00343911 0.00369076,0.0078848 0.00369076,0.0125402l0 0.0744862c0.0357332,-0.0384594 0.0720117,-0.067566 0.108752,-0.0868167 0.0367398,-0.0192087 0.0751992,-0.0288131 0.115168,-0.0288131 0.0438697,0 0.0808611,0.00712987 0.110932,0.0216832 0.0301132,0.0145533 0.0545226,0.0340137 0.0730183,0.0589263 0.0184957,0.024661 0.0317908,0.0537676 0.0399273,0.0870683 0.00838808,0.0332588 0.0123305,0.073228 0.0123305,0.119824l0 0.398015z"/>
  </g>
 </g>
</svg>